<svg xmlns="http://www.w3.org/2000/svg" width="18.506" height="18" viewBox="0 0 18.506 18">
  <g id="Icone_Photographe" data-name="Icone Photographe" transform="translate(-1352 -320)">
    <path id="Soustraction_4" data-name="Soustraction 4" d="M6.78,16H0V14c0-2.206,3.589-4,8-4a15.15,15.15,0,0,1,2.835.261H7.4v.809a1.654,1.654,0,0,0-.152.138,1.768,1.768,0,0,0-.466,1.2V16ZM8,8a4,4,0,1,1,4-4A4,4,0,0,1,8,8Z" transform="translate(1352 320)" fill="#fff"/>
    <path id="Soustraction_3" data-name="Soustraction 3" d="M10.122,7.425H.468A.469.469,0,0,1,0,6.932v-5.1a.776.776,0,0,1,.184-.5.581.581,0,0,1,.435-.164V.687H2.71v.479s.134.007.355.007c.132,0,.272,0,.415-.007.241-.007.394-.3.542-.583S4.324,0,4.567,0h.624L6.544,0c.424,0,.707,0,.868,0,.292.005.5.355.687.663.154.257.3.5.467.5h1.807a.338.338,0,0,1,.233.1.5.5,0,0,1,.118.369c0,.014,0,5.248,0,5.3a.553.553,0,0,1-.081.247A.567.567,0,0,1,10.122,7.425ZM6.072,2.218A2.036,2.036,0,1,0,8.108,4.254,2.038,2.038,0,0,0,6.072,2.218Z" transform="translate(1359.78 330.575)" fill="#fff"/>
  </g>
</svg>
