<svg xmlns="http://www.w3.org/2000/svg" width="22.316" height="18.17" viewBox="0 0 22.316 18.17">
  <g id="Icone_Panier" data-name="Icone Panier" transform="translate(-1419.885 -320.236)">
    <path id="Tracé_51" data-name="Tracé 51" d="M-1778.47,316.519h2.108a1.355,1.355,0,0,1,1.418,1.15c.085.316,2.568,8.931,2.683,9.353a2,2,0,0,0,1.572,1.342h8.472" transform="translate(3199.355 4.717)" fill="none" stroke="#fff" stroke-linecap="round" stroke-width="2"/>
    <path id="Tracé_52" data-name="Tracé 52" d="M-1769.729,318.189h12.025c.557,0,.966.248.668.921s-2.564,5.232-2.75,5.551a1.254,1.254,0,0,1-.928.567h-10.557" transform="translate(3198.125 4.351)" fill="none" stroke="#fff" stroke-linecap="round" stroke-width="2"/>
    <circle id="Ellipse_13" data-name="Ellipse 13" cx="1.877" cy="1.877" r="1.877" transform="translate(1426.854 334.652)" fill="#fff"/>
    <circle id="Ellipse_14" data-name="Ellipse 14" cx="1.877" cy="1.877" r="1.877" transform="translate(1435.113 334.652)" fill="#fff"/>
  </g>
</svg>
