<svg xmlns="http://www.w3.org/2000/svg" width="18.267" height="18.864" viewBox="0 0 18.267 18.864">
  <g id="Icone_Admin" data-name="Icone Admin" transform="translate(1612 -591)">
    <path id="Personne" d="M7.086,16H0V14c0-2.129,3.33-3.884,7.582-4l-.655,1.134-.5.866.866.5.535.31a5.369,5.369,0,0,0,0,1.233l-.539.311-.867.5.5.866L7.085,16ZM13,14.778a1.269,1.269,0,1,1,1.269-1.269A1.27,1.27,0,0,1,13,14.778ZM8,8a4,4,0,1,1,4-4A4,4,0,0,1,8,8Z" transform="translate(-1612 591)" fill="#fff"/>
    <path id="Pignon" d="M6.3,10.864H4.171V9.5A4.218,4.218,0,0,1,2.236,8.4l-1.17.675L0,7.225l1.158-.669A4.251,4.251,0,0,1,1.149,4.3L0,3.639,1.066,1.793l1.146.661a4.216,4.216,0,0,1,1.96-1.131V0H6.3V1.332A4.219,4.219,0,0,1,8.243,2.466l1.165-.673,1.066,1.846L9.3,4.317A4.252,4.252,0,0,1,9.29,6.541l1.184.684L9.408,9.071,8.219,8.384A4.222,4.222,0,0,1,6.3,9.494v1.37ZM5.2,3.24A2.269,2.269,0,1,0,7.472,5.509,2.271,2.271,0,0,0,5.2,3.24Z" transform="translate(-1604.207 599)" fill="#fff"/>
  </g>
</svg>
